<svg width="7" height="8" viewBox="0 0 7 8" fill="none" xmlns="http://www.w3.org/2000/svg">
<path d="M3.23864 8H0.550426V0.727273H3.23509C3.97609 0.727273 4.61411 0.872869 5.14915 1.16406C5.68655 1.45289 6.10085 1.86955 6.39205 2.41406C6.68324 2.9562 6.82884 3.60488 6.82884 4.36009C6.82884 5.11766 6.68324 5.7687 6.39205 6.31321C6.10322 6.85772 5.6901 7.27557 5.1527 7.56676C4.61529 7.85559 3.97727 8 3.23864 8ZM2.30824 6.50142H3.17116C3.57836 6.50142 3.92282 6.43277 4.20455 6.29545C4.48864 6.15578 4.70289 5.92969 4.8473 5.61719C4.99408 5.30232 5.06747 4.88329 5.06747 4.36009C5.06747 3.83688 4.99408 3.42022 4.8473 3.11009C4.70052 2.79759 4.4839 2.57268 4.19744 2.43537C3.91335 2.29569 3.56297 2.22585 3.14631 2.22585H2.30824V6.50142Z" fill="white"/>
</svg>
