<svg width="41" height="42" viewBox="0 0 41 42" fill="none" xmlns="http://www.w3.org/2000/svg">
<g clip-path="url(#clip0_35_2451)">
<path d="M40.9524 19.4638V39.9087C40.9524 40.3606 40.7726 40.794 40.4526 41.1135C40.1326 41.433 39.6986 41.6125 39.246 41.6125C38.7935 41.6125 38.3595 41.433 38.0395 41.1135C37.7195 40.794 37.5397 40.3606 37.5397 39.9087V31.39H3.4127V39.9087C3.4127 40.3606 3.23292 40.794 2.91292 41.1135C2.59292 41.433 2.1589 41.6125 1.70635 41.6125C1.2538 41.6125 0.819781 41.433 0.499778 41.1135C0.179776 40.794 0 40.3606 0 39.9087V22.0194C0 19.5342 0.988766 17.1508 2.74878 15.3934C4.50879 13.6361 6.89588 12.6489 9.38492 12.6489C11.874 12.6489 14.261 13.6361 16.0211 15.3934C17.7811 17.1508 18.7698 19.5342 18.7698 22.0194V27.9825H23.8889V19.4638C23.8889 18.1082 24.4282 16.8082 25.3882 15.8496C26.3482 14.8911 27.6503 14.3526 29.0079 14.3526H30.7143V17.7601C30.7143 18.212 30.8941 18.6453 31.2141 18.9648C31.5341 19.2843 31.9681 19.4638 32.4206 19.4638C32.8732 19.4638 33.3072 19.2843 33.6272 18.9648C33.9472 18.6453 34.127 18.212 34.127 17.7601V14.3526H35.8333C37.191 14.3526 38.493 14.8911 39.453 15.8496C40.4131 16.8082 40.9524 18.1082 40.9524 19.4638ZM15.3571 6.68576C15.3571 5.50637 15.0069 4.35347 14.3506 3.37284C13.6944 2.39221 12.7617 1.62791 11.6704 1.17657C10.5791 0.72524 9.3783 0.607151 8.2198 0.837238C7.0613 1.06733 5.99715 1.63526 5.16192 2.46921C4.32669 3.30316 3.75789 4.36569 3.52745 5.52242C3.29701 6.67914 3.41528 7.87813 3.86731 8.96774C4.31933 10.0574 5.08481 10.9887 6.06693 11.6439C7.04906 12.2991 8.20373 12.6489 9.38492 12.6489C10.9689 12.6489 12.4879 12.0206 13.6079 10.9023C14.7279 9.78401 15.3571 8.26727 15.3571 6.68576Z" fill="#141414"/>
</g>
<defs>
<clipPath id="clip0_35_2451">
<rect width="40.9524" height="40.8898" fill="white" transform="translate(0 0.722656)"/>
</clipPath>
</defs>
</svg>
