<svg width="41" height="41" viewBox="0 0 41 41" fill="none" xmlns="http://www.w3.org/2000/svg">
<g clip-path="url(#clip0_606_1790)">
<path d="M0.553651 20.3391C0.602751 20.1814 0.624762 20.017 0.680635 19.8611L5.24868 7.27297C5.84522 5.63958 6.92819 4.22883 8.35129 3.2313C9.7744 2.23377 11.4691 1.69753 13.2063 1.69501H27.4286C29.1661 1.69741 30.861 2.23381 32.2842 3.23169C33.7074 4.22958 34.7902 5.64082 35.3862 7.27467L39.9577 19.8611C40.0135 20.017 40.0355 20.1814 40.0847 20.3391H0.553651ZM33.8624 23.7289V27.1187C33.8624 27.5683 33.6841 27.9994 33.3665 28.3172C33.049 28.6351 32.6184 28.8136 32.1693 28.8136C31.7203 28.8136 31.2896 28.6351 30.9721 28.3172C30.6546 27.9994 30.4762 27.5683 30.4762 27.1187V23.7289H10.1587V27.1187C10.1587 27.5683 9.98035 27.9994 9.66283 28.3172C9.3453 28.6351 8.91465 28.8136 8.46561 28.8136C8.01656 28.8136 7.58591 28.6351 7.26839 28.3172C6.95087 27.9994 6.77249 27.5683 6.77249 27.1187V23.7289H0V27.1187C0.00216445 28.7658 0.483734 30.3765 1.38582 31.754C2.2879 33.1314 3.5714 34.2158 5.07936 34.8747V37.2882C5.07936 38.1873 5.43613 39.0495 6.07117 39.6852C6.70622 40.3209 7.56752 40.6781 8.46561 40.6781C9.3637 40.6781 10.225 40.3209 10.86 39.6852C11.4951 39.0495 11.8519 38.1873 11.8519 37.2882V35.5933H28.7831V37.2882C28.7831 38.1873 29.1398 39.0495 29.7749 39.6852C30.4099 40.3209 31.2712 40.6781 32.1693 40.6781C33.0674 40.6781 33.9287 40.3209 34.5637 39.6852C35.1988 39.0495 35.5556 38.1873 35.5556 37.2882V34.8747C37.0635 34.2158 38.347 33.1314 39.2491 31.754C40.1512 30.3765 40.6328 28.7658 40.6349 27.1187V23.7289H33.8624Z" fill="#141414"/>
</g>
<defs>
<clipPath id="clip0_606_1790">
<rect width="40.6349" height="40.678" fill="white"/>
</clipPath>
</defs>
</svg>
