<svg width="45" height="54" viewBox="0 0 45 54" fill="none" xmlns="http://www.w3.org/2000/svg">
<path d="M27 15.75V1.035C29.0814 1.821 30.9719 3.04045 32.5463 4.6125L40.3852 12.456C41.9591 14.0285 43.1795 15.9185 43.965 18H29.25C28.6533 18 28.081 17.7629 27.659 17.341C27.2371 16.919 27 16.3467 27 15.75ZM45 23.5912V42.75C44.9964 45.7326 43.81 48.592 41.701 50.701C39.592 52.81 36.7326 53.9964 33.75 54H11.25C8.26741 53.9964 5.40801 52.81 3.29899 50.701C1.18998 48.592 0.00357268 45.7326 0 42.75V11.25C0.00357268 8.26741 1.18998 5.40801 3.29899 3.29899C5.40801 1.18998 8.26741 0.00357268 11.25 0L21.4088 0C21.7755 0 22.1378 0.02925 22.5 0.054V15.75C22.5 17.5402 23.2112 19.2571 24.477 20.523C25.7429 21.7888 27.4598 22.5 29.25 22.5H44.946C44.9707 22.8622 45 23.2245 45 23.5912ZM33.129 32.1997C32.7177 31.768 32.1518 31.5172 31.5557 31.5024C30.9595 31.4877 30.3819 31.7102 29.9497 32.121L21.8498 39.8408C21.6333 40.0585 21.3746 40.2296 21.0896 40.3436C20.8045 40.4576 20.4992 40.512 20.1923 40.5036C19.8854 40.4952 19.5835 40.424 19.3052 40.2946C19.0268 40.1651 18.7779 39.98 18.5738 39.7507L14.9985 36.5693C14.7778 36.3725 14.5205 36.2211 14.2412 36.1237C13.962 36.0264 13.6664 35.985 13.3711 36.0019C12.7749 36.0361 12.2167 36.3057 11.8192 36.7515C11.6225 36.9722 11.4711 37.2295 11.3737 37.5088C11.2764 37.788 11.235 38.0836 11.2519 38.3789C11.2861 38.9751 11.5557 39.5333 12.0015 39.9307L15.4755 43.0223C16.7348 44.2818 18.4408 44.9926 20.2219 44.9998C22.0029 45.0069 23.7146 44.3099 24.984 43.0605L33.0502 35.379C33.482 34.9677 33.7328 34.4018 33.7476 33.8057C33.7623 33.2095 33.5398 32.6319 33.129 32.1997V32.1997Z" fill="#141414"/>
</svg>
