<svg width="28" height="24" viewBox="0 0 28 24" fill="none" xmlns="http://www.w3.org/2000/svg">
<g clip-path="url(#clip0_35_2298)">
<path d="M17.0906 6.99939H11.602V5.41339C11.6019 5.01789 11.4685 4.63129 11.2188 4.30247C10.9691 3.97365 10.6142 3.71738 10.1989 3.56604C9.7837 3.4147 9.3268 3.37509 8.886 3.45223C8.4452 3.52936 8.04028 3.71977 7.72244 3.99939L1.04062 9.87838C0.40151 10.441 0.0424805 11.2039 0.0424805 11.9994C0.0424805 12.7949 0.40151 13.5578 1.04062 14.1204L7.72244 19.9994C8.04028 20.279 8.4452 20.4694 8.886 20.5465C9.3268 20.6237 9.7837 20.5841 10.1989 20.4327C10.6142 20.2814 10.9691 20.0251 11.2188 19.6963C11.4685 19.3675 11.6019 18.9809 11.602 18.5854V16.9994H18.227C20.0347 17.001 21.7679 17.6336 23.0462 18.7585C24.3244 19.8834 25.0434 21.4086 25.0452 22.9994C25.0452 23.2646 25.1649 23.5189 25.378 23.7065C25.5911 23.894 25.8801 23.9994 26.1815 23.9994C26.4829 23.9994 26.7719 23.894 26.9851 23.7065C27.1982 23.5189 27.3179 23.2646 27.3179 22.9994V15.9994C27.3149 13.6132 26.2364 11.3256 24.3191 9.63835C22.4017 7.95109 19.8021 7.00203 17.0906 6.99939V6.99939Z" fill="#F8F9FA"/>
</g>
<defs>
<clipPath id="clip0_35_2298">
<rect width="27.2727" height="24" fill="white" transform="translate(0.0454102)"/>
</clipPath>
</defs>
</svg>
