<svg width="41" height="41" viewBox="0 0 41 41" fill="none" xmlns="http://www.w3.org/2000/svg">
<g clip-path="url(#clip0_606_1794)">
<path d="M40.9524 18.7412V39.1861C40.9524 39.638 40.7726 40.0713 40.4526 40.3908C40.1326 40.7103 39.6986 40.8898 39.246 40.8898C38.7935 40.8898 38.3595 40.7103 38.0395 40.3908C37.7195 40.0713 37.5397 39.638 37.5397 39.1861V30.6674H3.4127V39.1861C3.4127 39.638 3.23292 40.0713 2.91292 40.3908C2.59292 40.7103 2.1589 40.8898 1.70635 40.8898C1.2538 40.8898 0.819781 40.7103 0.499778 40.3908C0.179776 40.0713 0 39.638 0 39.1861V21.2968C0 18.8116 0.988766 16.4281 2.74878 14.6708C4.50879 12.9135 6.89588 11.9262 9.38492 11.9262C11.874 11.9262 14.261 12.9135 16.0211 14.6708C17.7811 16.4281 18.7698 18.8116 18.7698 21.2968V27.2599H23.8889V18.7412C23.8889 17.3856 24.4282 16.0855 25.3882 15.127C26.3482 14.1684 27.6503 13.6299 29.0079 13.6299H30.7143V17.0374C30.7143 17.4893 30.8941 17.9226 31.2141 18.2422C31.5341 18.5617 31.9681 18.7412 32.4206 18.7412C32.8732 18.7412 33.3072 18.5617 33.6272 18.2422C33.9472 17.9226 34.127 17.4893 34.127 17.0374V13.6299H35.8333C37.191 13.6299 38.493 14.1684 39.453 15.127C40.4131 16.0855 40.9524 17.3856 40.9524 18.7412ZM15.3571 5.9631C15.3571 4.78371 15.0069 3.63081 14.3506 2.65018C13.6944 1.66956 12.7617 0.90525 11.6704 0.453917C10.5791 0.00258376 9.3783 -0.115506 8.2198 0.114582C7.0613 0.34467 5.99715 0.9126 5.16192 1.74655C4.32669 2.58051 3.75789 3.64303 3.52745 4.79976C3.29701 5.95649 3.41528 7.15547 3.86731 8.24508C4.31933 9.3347 5.08481 10.266 6.06693 10.9212C7.04906 11.5765 8.20373 11.9262 9.38492 11.9262C10.9689 11.9262 12.4879 11.2979 13.6079 10.1797C14.7279 9.06135 15.3571 7.54462 15.3571 5.9631Z" fill="#141414"/>
</g>
<defs>
<clipPath id="clip0_606_1794">
<rect width="40.9524" height="40.8898" fill="white"/>
</clipPath>
</defs>
</svg>
