<svg width="40" height="37" viewBox="0 0 40 37" fill="none" xmlns="http://www.w3.org/2000/svg">
<g clip-path="url(#clip0_85_2199)">
<path d="M10.0507 35.64C9.61064 35.64 9.26486 35.2858 9.26486 34.835V14.6775L7.0644 16.5774C7.03296 16.6096 7.00153 16.6096 7.00153 16.6418C6.68717 16.835 6.34139 16.9638 5.9956 16.9638C5.3669 16.9638 4.80106 16.6418 4.45528 16.1266L1.09172 10.9423C0.525882 10.0729 0.777364 8.91369 1.62611 8.33408L10.9624 1.6686C11.0252 1.6364 11.0881 1.572 11.1824 1.572C11.2138 1.572 12.0626 1.2822 13.2571 1.25H14.2316C14.4517 1.25 14.6717 1.3466 14.7974 1.5076C14.9546 1.6686 15.0175 1.89401 14.9861 2.11941C14.9861 2.15161 14.9861 2.21601 14.9546 2.24821C15.0175 4.66324 17.5009 6.91726 20.1414 6.91726C22.782 6.91726 25.2654 4.66324 25.3282 2.24821C25.3282 2.21601 25.3282 2.15161 25.2968 2.11941C25.2654 1.89401 25.3597 1.6686 25.4854 1.5076C25.6111 1.3466 25.8312 1.25 26.0512 1.25H27.9688C28.7232 1.25 29.3205 1.6042 29.3834 1.6364C29.4148 1.6364 29.4148 1.6686 29.4462 1.6686L38.4681 8.33408C39.2854 8.88148 39.5369 10.0729 38.9711 10.9423L35.6075 15.8368C35.2932 16.352 34.6959 16.674 34.0672 16.674C33.69 16.674 33.3442 16.5774 33.0613 16.352C33.0298 16.352 33.0298 16.3198 32.9984 16.2876L30.9866 14.5809L30.9237 34.835C30.9237 35.2858 30.5779 35.64 30.1378 35.64H10.0507Z" fill="black"/>
<path d="M28.0002 2.05484C28.5661 2.05484 28.9747 2.34465 28.9747 2.34465L37.9966 8.97792C38.4996 9.29992 38.6253 9.97613 38.2795 10.4913L34.916 15.3536C34.7274 15.6756 34.3816 15.8366 34.0358 15.8366C33.8472 15.8366 33.6271 15.7722 33.4385 15.6434L30.1378 12.8742L30.075 34.8348H10.0508V12.9386L6.53003 15.9654C6.34142 16.0942 6.15281 16.1586 5.93276 16.1586C5.58698 16.1586 5.24119 15.9976 5.05258 15.6756L1.72045 10.4913C1.4061 9.97613 1.53184 9.33212 2.00337 8.97792L11.3396 2.31245C11.3396 2.31245 12.0941 2.05484 13.1629 2.02264H14.1373V2.15144C14.1373 5.04948 16.9979 7.72211 20.11 7.72211C23.2221 7.72211 26.0827 5.04948 26.0827 2.15144V2.02264H28.0002C27.9688 2.05484 28.0002 2.05484 28.0002 2.05484ZM28.0002 0.444824H26.0827C25.6426 0.444824 25.234 0.638026 24.9196 0.96003C24.6367 1.28203 24.4795 1.73284 24.5109 2.18364V2.31245C24.4166 4.27667 22.279 6.14429 20.11 6.14429C17.941 6.14429 15.8034 4.27667 15.7091 2.31245V2.18364C15.7405 1.73284 15.6148 1.28203 15.3004 0.96003C15.0175 0.638026 14.5774 0.444824 14.1373 0.444824H13.1314C11.874 0.477025 10.9624 0.766828 10.8366 0.799028C10.6795 0.863429 10.5537 0.92783 10.428 1.02443L1.15462 7.6577C-0.0399179 8.49491 -0.35427 10.1371 0.43161 11.3929L3.79517 16.5772C4.29813 17.3178 5.11545 17.7686 5.99563 17.7686C6.4986 17.7686 7.00156 17.6076 7.44165 17.3178C7.50452 17.2856 7.53596 17.2534 7.59883 17.2212L8.51045 16.4162V34.8348C8.51045 35.7364 9.20202 36.4448 10.0822 36.4448H30.1378C31.018 36.4448 31.7096 35.7364 31.7096 34.8348L31.741 16.2552L32.464 16.867C32.4955 16.8992 32.5583 16.9314 32.5898 16.9636C33.0299 17.2534 33.5328 17.4144 34.0358 17.4144C34.916 17.4144 35.7333 16.9636 36.2048 16.223L39.537 11.3929L39.5684 11.3607C40.3543 10.1371 40.0399 8.46271 38.8454 7.6577L29.8549 0.99223C29.8235 0.96003 29.7921 0.96003 29.7606 0.92783C29.6663 0.863429 28.9433 0.444824 28.0002 0.444824Z" fill="black"/>
</g>
<defs>
<clipPath id="clip0_85_2199">
<rect width="40" height="36" fill="white" transform="translate(0 0.444824)"/>
</clipPath>
</defs>
</svg>
