<svg width="50" height="50" viewBox="0 0 50 50" fill="none" xmlns="http://www.w3.org/2000/svg">
<g clip-path="url(#clip0_606_1810)">
<path d="M33.3333 5.72917C33.3333 10.2354 27.4583 15.8354 24.5313 18.1833C24.0732 18.5505 23.5037 18.7506 22.9167 18.7506C22.3296 18.7506 21.7601 18.5505 21.3021 18.1833C18.375 15.8333 12.5 10.2354 12.5 5.72917C12.4343 4.27962 12.9454 2.86306 13.9215 1.78939C14.8975 0.71571 16.2591 0.0723301 17.7083 0C19.1576 0.0723301 20.5191 0.71571 21.4952 1.78939C22.4713 2.86306 22.9824 4.27962 22.9167 5.72917C22.851 4.27962 23.362 2.86306 24.3381 1.78939C25.3142 0.71571 26.6758 0.0723301 28.125 0C29.5742 0.0723301 30.9358 0.71571 31.9119 1.78939C32.888 2.86306 33.399 4.27962 33.3333 5.72917V5.72917ZM48.6208 25.7292L32.5792 43.2479C30.6261 45.3775 28.2514 47.0776 25.6059 48.24C22.9604 49.4024 20.1021 50.0018 17.2125 50H8.33333C6.1232 50 4.00358 49.122 2.44078 47.5592C0.877974 45.9964 0 43.8768 0 41.6667V31.25C0 29.0399 0.877974 26.9202 2.44078 25.3574C4.00358 23.7946 6.1232 22.9167 8.33333 22.9167H24.5563C25.2449 22.918 25.9246 23.0732 26.5455 23.371C27.1664 23.6688 27.713 24.1016 28.1451 24.6378C28.5773 25.174 28.8841 25.8 29.0432 26.47C29.2023 27.1401 29.2096 27.8372 29.0646 28.5104C28.839 29.4521 28.331 30.3024 27.6087 30.9473C26.8863 31.5923 25.9841 32.001 25.0229 32.1188L16.35 33.3333C15.8034 33.4117 15.3102 33.704 14.979 34.1458C14.6477 34.5876 14.5054 35.1429 14.5833 35.6896C14.6612 36.2366 14.9533 36.7302 15.3951 37.0619C15.837 37.3937 16.3926 37.5362 16.9396 37.4583L25.7979 36.2083C27.8843 35.901 29.7916 34.8564 31.174 33.2638C32.5564 31.6712 33.3225 29.636 33.3333 27.5271C33.3231 27.0812 33.2779 26.6367 33.1979 26.1979L40.5771 18.4125C41.5502 17.3588 42.9006 16.733 44.3336 16.6717C45.7665 16.6105 47.1655 17.1187 48.225 18.0854C49.2791 19.0515 49.9114 20.3931 49.9854 21.8211C50.0595 23.249 49.5694 24.6488 48.6208 25.7188V25.7292Z" fill="#141414"/>
</g>
<defs>
<clipPath id="clip0_606_1810">
<rect width="50" height="50" fill="white"/>
</clipPath>
</defs>
</svg>
