<svg width="24" height="24" viewBox="0 0 24 24" fill="none" xmlns="http://www.w3.org/2000/svg">
<g clip-path="url(#clip0_228_2154)">
<path d="M1.172 19.1186C0.421803 19.8686 0.00022655 20.8859 0 21.9466L0 23.9996H2.053C3.11378 23.9994 4.13103 23.5778 4.881 22.8276L18.224 9.48466L14.515 5.77567L1.172 19.1186Z" fill="white"/>
<path d="M23.1447 0.855145C22.9012 0.61138 22.612 0.418 22.2937 0.286062C21.9754 0.154123 21.6343 0.0862122 21.2897 0.0862122C20.9452 0.0862122 20.604 0.154123 20.2857 0.286062C19.9674 0.418 19.6782 0.61138 19.4347 0.855145L15.9287 4.36214L19.6377 8.07115L23.1447 4.56515C23.3885 4.32163 23.5819 4.03247 23.7138 3.71417C23.8457 3.39588 23.9136 3.0547 23.9136 2.71014C23.9136 2.36559 23.8457 2.02441 23.7138 1.70612C23.5819 1.38782 23.3885 1.09866 23.1447 0.855145Z" fill="white"/>
</g>
<defs>
<clipPath id="clip0_228_2154">
<rect width="24" height="24" fill="white"/>
</clipPath>
</defs>
</svg>
