<svg width="42" height="42" viewBox="0 0 42 42" fill="none" xmlns="http://www.w3.org/2000/svg">
<g clip-path="url(#clip0_606_1798)">
<path d="M20.9765 26.0972C18.1493 26.0972 15.8574 28.3856 15.8574 31.2085V41.4309H26.0955V31.2085C26.0955 28.3856 23.8036 26.0972 20.9765 26.0972Z" fill="#141414"/>
<path d="M29.508 31.2092V41.4316H36.3333C39.1605 41.4316 41.4524 39.1432 41.4524 36.3204V20.7806C41.4528 19.8955 41.1083 19.0449 40.4917 18.409L25.9912 2.75664C23.4326 -0.00741714 19.1144 -0.177126 16.3461 2.37753C16.2146 2.49892 16.0879 2.62534 15.9664 2.75664L1.49142 18.4039C0.856174 19.0425 0.49976 19.9061 0.5 20.8061V36.3204C0.5 39.1432 2.79189 41.4316 5.61905 41.4316H12.4444V31.2092C12.4763 26.5634 16.233 22.7696 20.7687 22.6603C25.4562 22.5474 29.4722 26.4058 29.508 31.2092Z" fill="#141414"/>
<path d="M20.9765 26.0972C18.1493 26.0972 15.8574 28.3856 15.8574 31.2085V41.4309H26.0955V31.2085C26.0955 28.3856 23.8036 26.0972 20.9765 26.0972Z" fill="#141414"/>
</g>
<defs>
<clipPath id="clip0_606_1798">
<rect width="40.9524" height="40.8898" fill="white" transform="translate(0.5 0.555054)"/>
</clipPath>
</defs>
</svg>
