<svg width="50" height="50" viewBox="0 0 50 50" fill="none" xmlns="http://www.w3.org/2000/svg">
<g clip-path="url(#clip0_606_1779)">
<path d="M18.75 0H10.4167C7.65399 0 5.00447 1.09747 3.05097 3.05097C1.09747 5.00447 0 7.65399 0 10.4167L0 39.5833C0 40.9513 0.269435 42.3058 0.792921 43.5696C1.31641 44.8334 2.08369 45.9818 3.05097 46.949C5.00447 48.9025 7.65399 50 10.4167 50H29.1667V10.4167C29.1667 9.04873 28.8972 7.69419 28.3737 6.43038C27.8503 5.16657 27.083 4.01825 26.1157 3.05097C25.1484 2.08369 24.0001 1.31641 22.7363 0.792921C21.4725 0.269435 20.1179 0 18.75 0V0ZM10.4167 39.5833H8.33333C7.7808 39.5833 7.25089 39.3638 6.86019 38.9731C6.46949 38.5824 6.25 38.0525 6.25 37.5C6.25 36.9475 6.46949 36.4176 6.86019 36.0269C7.25089 35.6362 7.7808 35.4167 8.33333 35.4167H10.4167C10.9692 35.4167 11.4991 35.6362 11.8898 36.0269C12.2805 36.4176 12.5 36.9475 12.5 37.5C12.5 38.0525 12.2805 38.5824 11.8898 38.9731C11.4991 39.3638 10.9692 39.5833 10.4167 39.5833ZM10.4167 31.25H8.33333C7.7808 31.25 7.25089 31.0305 6.86019 30.6398C6.46949 30.2491 6.25 29.7192 6.25 29.1667C6.25 28.6141 6.46949 28.0842 6.86019 27.6935C7.25089 27.3028 7.7808 27.0833 8.33333 27.0833H10.4167C10.9692 27.0833 11.4991 27.3028 11.8898 27.6935C12.2805 28.0842 12.5 28.6141 12.5 29.1667C12.5 29.7192 12.2805 30.2491 11.8898 30.6398C11.4991 31.0305 10.9692 31.25 10.4167 31.25ZM10.4167 22.9167H8.33333C7.7808 22.9167 7.25089 22.6972 6.86019 22.3065C6.46949 21.9158 6.25 21.3859 6.25 20.8333C6.25 20.2808 6.46949 19.7509 6.86019 19.3602C7.25089 18.9695 7.7808 18.75 8.33333 18.75H10.4167C10.9692 18.75 11.4991 18.9695 11.8898 19.3602C12.2805 19.7509 12.5 20.2808 12.5 20.8333C12.5 21.3859 12.2805 21.9158 11.8898 22.3065C11.4991 22.6972 10.9692 22.9167 10.4167 22.9167ZM10.4167 14.5833H8.33333C7.7808 14.5833 7.25089 14.3638 6.86019 13.9731C6.46949 13.5824 6.25 13.0525 6.25 12.5C6.25 11.9475 6.46949 11.4176 6.86019 11.0269C7.25089 10.6362 7.7808 10.4167 8.33333 10.4167H10.4167C10.9692 10.4167 11.4991 10.6362 11.8898 11.0269C12.2805 11.4176 12.5 11.9475 12.5 12.5C12.5 13.0525 12.2805 13.5824 11.8898 13.9731C11.4991 14.3638 10.9692 14.5833 10.4167 14.5833ZM20.8333 39.5833H18.75C18.1975 39.5833 17.6676 39.3638 17.2769 38.9731C16.8862 38.5824 16.6667 38.0525 16.6667 37.5C16.6667 36.9475 16.8862 36.4176 17.2769 36.0269C17.6676 35.6362 18.1975 35.4167 18.75 35.4167H20.8333C21.3859 35.4167 21.9158 35.6362 22.3065 36.0269C22.6972 36.4176 22.9167 36.9475 22.9167 37.5C22.9167 38.0525 22.6972 38.5824 22.3065 38.9731C21.9158 39.3638 21.3859 39.5833 20.8333 39.5833ZM20.8333 31.25H18.75C18.1975 31.25 17.6676 31.0305 17.2769 30.6398C16.8862 30.2491 16.6667 29.7192 16.6667 29.1667C16.6667 28.6141 16.8862 28.0842 17.2769 27.6935C17.6676 27.3028 18.1975 27.0833 18.75 27.0833H20.8333C21.3859 27.0833 21.9158 27.3028 22.3065 27.6935C22.6972 28.0842 22.9167 28.6141 22.9167 29.1667C22.9167 29.7192 22.6972 30.2491 22.3065 30.6398C21.9158 31.0305 21.3859 31.25 20.8333 31.25ZM20.8333 22.9167H18.75C18.1975 22.9167 17.6676 22.6972 17.2769 22.3065C16.8862 21.9158 16.6667 21.3859 16.6667 20.8333C16.6667 20.2808 16.8862 19.7509 17.2769 19.3602C17.6676 18.9695 18.1975 18.75 18.75 18.75H20.8333C21.3859 18.75 21.9158 18.9695 22.3065 19.3602C22.6972 19.7509 22.9167 20.2808 22.9167 20.8333C22.9167 21.3859 22.6972 21.9158 22.3065 22.3065C21.9158 22.6972 21.3859 22.9167 20.8333 22.9167ZM20.8333 14.5833H18.75C18.1975 14.5833 17.6676 14.3638 17.2769 13.9731C16.8862 13.5824 16.6667 13.0525 16.6667 12.5C16.6667 11.9475 16.8862 11.4176 17.2769 11.0269C17.6676 10.6362 18.1975 10.4167 18.75 10.4167H20.8333C21.3859 10.4167 21.9158 10.6362 22.3065 11.0269C22.6972 11.4176 22.9167 11.9475 22.9167 12.5C22.9167 13.0525 22.6972 13.5824 22.3065 13.9731C21.9158 14.3638 21.3859 14.5833 20.8333 14.5833ZM39.5833 10.4167H33.3333V50H39.5833C42.345 49.9967 44.9926 48.8982 46.9454 46.9454C48.8982 44.9926 49.9967 42.345 50 39.5833V20.8333C49.9967 18.0717 48.8982 15.4241 46.9454 13.4713C44.9926 11.5185 42.345 10.42 39.5833 10.4167V10.4167ZM41.6667 39.5833C41.2546 39.5833 40.8518 39.4611 40.5092 39.2322C40.1666 39.0033 39.8996 38.6779 39.7419 38.2973C39.5842 37.9166 39.543 37.4977 39.6234 37.0936C39.7037 36.6894 39.9022 36.3182 40.1935 36.0269C40.4849 35.7355 40.8561 35.5371 41.2602 35.4567C41.6644 35.3763 42.0832 35.4176 42.4639 35.5752C42.8446 35.7329 43.17 36 43.3989 36.3426C43.6278 36.6852 43.75 37.088 43.75 37.5C43.75 38.0525 43.5305 38.5824 43.1398 38.9731C42.7491 39.3638 42.2192 39.5833 41.6667 39.5833ZM41.6667 31.25C41.2546 31.25 40.8518 31.1278 40.5092 30.8989C40.1666 30.67 39.8996 30.3446 39.7419 29.9639C39.5842 29.5832 39.543 29.1644 39.6234 28.7602C39.7037 28.3561 39.9022 27.9849 40.1935 27.6935C40.4849 27.4022 40.8561 27.2037 41.2602 27.1234C41.6644 27.043 42.0832 27.0842 42.4639 27.2419C42.8446 27.3996 43.17 27.6666 43.3989 28.0092C43.6278 28.3518 43.75 28.7546 43.75 29.1667C43.75 29.7192 43.5305 30.2491 43.1398 30.6398C42.7491 31.0305 42.2192 31.25 41.6667 31.25ZM41.6667 22.9167C41.2546 22.9167 40.8518 22.7945 40.5092 22.5656C40.1666 22.3366 39.8996 22.0113 39.7419 21.6306C39.5842 21.2499 39.543 20.831 39.6234 20.4269C39.7037 20.0228 39.9022 19.6516 40.1935 19.3602C40.4849 19.0688 40.8561 18.8704 41.2602 18.79C41.6644 18.7096 42.0832 18.7509 42.4639 18.9086C42.8446 19.0663 43.17 19.3333 43.3989 19.6759C43.6278 20.0185 43.75 20.4213 43.75 20.8333C43.75 21.3859 43.5305 21.9158 43.1398 22.3065C42.7491 22.6972 42.2192 22.9167 41.6667 22.9167Z" fill="#141414"/>
</g>
<defs>
<clipPath id="clip0_606_1779">
<rect width="50" height="50" fill="white"/>
</clipPath>
</defs>
</svg>
