<svg width="41" height="40" viewBox="0 0 41 40" fill="none" xmlns="http://www.w3.org/2000/svg">
<g clip-path="url(#clip0_35_2455)">
<path d="M32.1667 0H8.83333C6.6232 0 4.50358 0.877974 2.94078 2.44078C1.37797 4.00358 0.5 6.1232 0.5 8.33333H0.5C0.5 9.65942 1.02678 10.9312 1.96447 11.8689C2.90215 12.8065 4.17392 13.3333 5.5 13.3333H35.5C36.7675 13.3488 37.9927 12.8774 38.923 12.0163C39.8533 11.1552 40.4177 9.96997 40.5 8.705C40.549 7.58007 40.3698 6.45686 39.9732 5.40304C39.5765 4.34923 38.9706 3.38663 38.1919 2.57326C37.4133 1.75988 36.478 1.11257 35.4425 0.670322C34.407 0.228077 33.2927 5.62647e-05 32.1667 0V0Z" fill="black"/>
<path d="M37.166 16.6665H3.83268C3.39065 16.6665 2.96673 16.8421 2.65417 17.1547C2.34161 17.4672 2.16602 17.8911 2.16602 18.3332V31.6665C2.16866 33.8758 3.04749 35.9939 4.60972 37.5561C6.17195 39.1184 8.29002 39.9972 10.4993 39.9998H30.4993C32.7087 39.9972 34.8268 39.1184 36.389 37.5561C37.9512 35.9939 38.83 33.8758 38.8327 31.6665V18.3332C38.8327 17.8911 38.6571 17.4672 38.3445 17.1547C38.032 16.8421 37.608 16.6665 37.166 16.6665ZM25.4993 24.9998H15.4993C15.0573 24.9998 14.6334 24.8242 14.3208 24.5117C14.0083 24.1991 13.8327 23.7752 13.8327 23.3332C13.8327 22.8911 14.0083 22.4672 14.3208 22.1547C14.6334 21.8421 15.0573 21.6665 15.4993 21.6665H25.4993C25.9414 21.6665 26.3653 21.8421 26.6779 22.1547C26.9904 22.4672 27.166 22.8911 27.166 23.3332C27.166 23.7752 26.9904 24.1991 26.6779 24.5117C26.3653 24.8242 25.9414 24.9998 25.4993 24.9998Z" fill="black"/>
</g>
<defs>
<clipPath id="clip0_35_2455">
<rect width="40" height="40" fill="white" transform="translate(0.5)"/>
</clipPath>
</defs>
</svg>
