<svg width="25" height="24" viewBox="0 0 25 24" fill="none" xmlns="http://www.w3.org/2000/svg">
<g clip-path="url(#clip0_35_2283)">
<path d="M2.50002 11H13.5C14.6045 11 15.5 10.1046 15.5 9V2.00002C15.5 0.895453 14.6045 0 13.5 0H2.50002C1.39545 0 0.5 0.895453 0.5 2.00002V9C0.5 10.1046 1.39545 11 2.50002 11Z" fill="#F8F9FA"/>
<path d="M24.158 0.882C23.7863 0.330656 23.1649 9.375e-05 22.5 0H19.5C18.3955 0 17.5 0.895453 17.5 2.00002V9C17.5 10.1046 18.3954 11 19.5 11H22.5C23.6046 11 24.5 10.1046 24.5 9V2.00002C24.5007 1.60148 24.3815 1.21195 24.158 0.882Z" fill="#F8F9FA"/>
<path d="M6.61798 13.342C6.28803 13.1185 5.8985 12.9993 5.49997 13H2.49997C1.39545 13 0.5 13.8955 0.5 15V22C0.5 23.1046 1.39545 24 2.50002 24H5.50002C6.60458 24 7.50003 23.1046 7.50003 22V15C7.49989 14.3351 7.16933 13.7137 6.61798 13.342Z" fill="#F8F9FA"/>
<path d="M23.618 13.342C23.288 13.1185 22.8985 12.9993 22.5 13H11.5C10.3955 13 9.5 13.8955 9.5 15V22C9.5 23.1046 10.3955 24 11.5 24H22.5C23.6046 24 24.5 23.1046 24.5 22V15C24.4999 14.3351 24.1693 13.7137 23.618 13.342Z" fill="#F8F9FA"/>
</g>
<defs>
<clipPath id="clip0_35_2283">
<rect width="24" height="24" fill="white" transform="translate(0.5)"/>
</clipPath>
</defs>
</svg>
