<svg width="50" height="50" viewBox="0 0 50 50" fill="none" xmlns="http://www.w3.org/2000/svg">
<g clip-path="url(#clip0_606_1782)">
<path d="M22.916 36.4583C22.9186 33.8051 23.7006 31.211 25.1649 28.9984C26.6292 26.7858 28.7112 25.052 31.1523 24.0126C33.5935 22.9731 36.2863 22.6736 38.8962 23.1514C41.506 23.6292 43.9181 24.8631 45.8327 26.7V6.25C45.8327 4.5924 45.1742 3.00268 44.0021 1.83058C42.83 0.65848 41.2403 0 39.5827 0L14.5827 0C11.821 0.00330804 9.17343 1.10184 7.22064 3.05462C5.26785 5.00741 4.16932 7.65501 4.16602 10.4167V39.5833C4.16932 42.345 5.26785 44.9926 7.22064 46.9454C9.17343 48.8982 11.821 49.9967 14.5827 50H36.4577C32.8662 50 29.4218 48.5733 26.8823 46.0337C24.3427 43.4942 22.916 40.0498 22.916 36.4583ZM14.5827 14.5833C14.5827 14.0308 14.8022 13.5009 15.1929 13.1102C15.5836 12.7195 16.1135 12.5 16.666 12.5H33.3327C33.8852 12.5 34.4151 12.7195 34.8058 13.1102C35.1965 13.5009 35.416 14.0308 35.416 14.5833C35.416 15.1359 35.1965 15.6658 34.8058 16.0565C34.4151 16.4472 33.8852 16.6667 33.3327 16.6667H16.666C16.1135 16.6667 15.5836 16.4472 15.1929 16.0565C14.8022 15.6658 14.5827 15.1359 14.5827 14.5833ZM49.3889 49.3896C48.9983 49.7801 48.4684 49.9996 47.916 49.9996C47.3636 49.9996 46.8338 49.7801 46.4431 49.3896L41.4285 44.375C39.9435 45.3228 38.2194 45.8286 36.4577 45.8333C34.6035 45.8333 32.7909 45.2835 31.2492 44.2534C29.7075 43.2232 28.5059 41.759 27.7963 40.046C27.0867 38.3329 26.9011 36.4479 27.2628 34.6294C27.6246 32.8108 28.5174 31.1403 29.8286 29.8292C31.1397 28.5181 32.8101 27.6252 34.6287 27.2635C36.4473 26.9017 38.3323 27.0874 40.0453 27.797C41.7584 28.5065 43.2226 29.7082 44.2527 31.2499C45.2829 32.7916 45.8327 34.6041 45.8327 36.4583C45.828 38.2201 45.3222 39.9441 44.3744 41.4292L49.3889 46.4437C49.7795 46.8344 49.9989 47.3642 49.9989 47.9167C49.9989 48.4691 49.7795 48.9989 49.3889 49.3896Z" fill="#141414"/>
</g>
<defs>
<clipPath id="clip0_606_1782">
<rect width="50" height="50" fill="white"/>
</clipPath>
</defs>
</svg>
