<svg width="20" height="20" viewBox="0 0 20 20" fill="none" xmlns="http://www.w3.org/2000/svg">
<g clip-path="url(#clip0_606_1729)">
<path d="M17.2333 0.972666L17.2158 0.966833L14.9533 0.216834C14.1718 -0.0426195 13.3311 -0.0655216 12.5367 0.151L7.89 1.50017C7.32105 1.65095 6.71726 1.59788 6.18333 1.35017L5.76667 1.15683C5.13383 0.893644 4.44584 0.790631 3.76366 0.856922C3.08149 0.923213 2.4262 1.15676 1.85588 1.53687C1.28555 1.91698 0.817796 2.4319 0.494069 3.03602C0.170342 3.64013 0.000639405 4.31478 0 5.00016L0 15.0626C0.00175133 15.9638 0.294827 16.8401 0.835492 17.561C1.37616 18.2819 2.13543 18.8087 3 19.0626L5.39083 19.8126C5.79418 19.938 6.21428 20.0013 6.63667 20.0001C7.01318 20.0049 7.38833 19.9541 7.75 19.8493L12.5833 18.516C13.025 18.3962 13.4911 18.3999 13.9308 18.5268L15.8833 19.0901C16.3735 19.2087 16.8842 19.2144 17.3769 19.1069C17.8696 18.9995 18.3316 18.7816 18.7279 18.4698C19.1242 18.1579 19.4446 17.7602 19.665 17.3066C19.8853 16.853 19.9999 16.3553 20 15.851V4.89683C19.9987 4.03753 19.7324 3.19955 19.2372 2.49724C18.7421 1.79494 18.0423 1.26253 17.2333 0.972666ZM3.48 17.466C2.95859 17.3152 2.50008 16.9995 2.17316 16.5662C1.84625 16.133 1.66854 15.6054 1.66667 15.0626V5.00016C1.66262 4.58739 1.76246 4.18024 1.95702 3.81618C2.15158 3.45212 2.43459 3.14284 2.78 2.91683C3.191 2.6442 3.67346 2.49923 4.16667 2.50016C4.48472 2.50025 4.79963 2.56312 5.09333 2.68516C5.09333 2.68516 5.71417 2.951 5.8325 2.9935V18.2018L3.48 17.466ZM7.5 18.1893V3.23266C7.78305 3.21764 8.06389 3.17437 8.33833 3.1035L12.5 1.89433V16.8335L7.5 18.1893ZM18.3333 15.851C18.3335 16.1006 18.2776 16.3471 18.1698 16.5722C18.0619 16.7973 17.9049 16.9953 17.7103 17.1516C17.5157 17.3079 17.2884 17.4185 17.0453 17.4753C16.8023 17.532 16.5495 17.5334 16.3058 17.4793L14.1667 16.8768V1.72933L16.6817 2.54516C17.165 2.72029 17.5828 3.0399 17.8783 3.4606C18.1737 3.8813 18.3326 4.38273 18.3333 4.89683V15.851Z" fill="#F8F9FA"/>
</g>
<defs>
<clipPath id="clip0_606_1729">
<rect width="20" height="20" fill="white"/>
</clipPath>
</defs>
</svg>
