<svg width="88" height="88" viewBox="0 0 88 88" fill="none" xmlns="http://www.w3.org/2000/svg">
<g clip-path="url(#clip0_606_1807)">
<path d="M84.3333 58.6667C83.7658 58.6666 83.206 58.5348 82.698 58.2817L75.3647 54.615C74.4943 54.1803 73.8323 53.4177 73.5242 52.4949C73.2162 51.5721 73.2873 50.5647 73.722 49.6943C74.1567 48.824 74.9193 48.162 75.8421 47.8539C76.7649 47.5458 77.7723 47.617 78.6427 48.0517L85.976 51.7183C86.7162 52.0872 87.3099 52.6955 87.6608 53.4444C88.0116 54.1933 88.099 55.0388 87.9087 55.8436C87.7185 56.6484 87.2617 57.3653 86.6127 57.8778C85.9636 58.3903 85.1603 58.6683 84.3333 58.6667V58.6667ZM78.639 25.3L85.9723 21.6333C86.8427 21.1986 87.5047 20.436 87.8128 19.5132C88.1208 18.5904 88.0497 17.583 87.615 16.7127C87.1803 15.8423 86.4177 15.1803 85.4949 14.8722C84.5721 14.5642 83.5647 14.6353 82.6943 15.07L75.361 18.7367C74.4907 19.1714 73.8286 19.934 73.5206 20.8568C73.2125 21.7796 73.2836 22.787 73.7183 23.6573C74.153 24.5277 74.9157 25.1897 75.8385 25.4978C76.7613 25.8058 77.7687 25.7347 78.639 25.3V25.3ZM88 36.6667C88 35.6942 87.6137 34.7616 86.9261 34.0739C86.2384 33.3863 85.3058 33 84.3333 33H77C76.0275 33 75.0949 33.3863 74.4073 34.0739C73.7196 34.7616 73.3333 35.6942 73.3333 36.6667C73.3333 37.6391 73.7196 38.5718 74.4073 39.2594C75.0949 39.947 76.0275 40.3333 77 40.3333H84.3333C85.3058 40.3333 86.2384 39.947 86.9261 39.2594C87.6137 38.5718 88 37.6391 88 36.6667ZM66 69.6667V3.66667C66 2.69421 65.6137 1.76158 64.9261 1.07394C64.2384 0.386308 63.3058 0 62.3333 0C61.3609 0 60.4282 0.386308 59.7406 1.07394C59.053 1.76158 58.6667 2.69421 58.6667 3.66667C58.6667 14.4797 49.1957 18.3333 40.3333 18.3333H14.6667C10.7768 18.3333 7.0463 19.8786 4.29577 22.6291C1.54523 25.3796 0 29.1102 0 33L0 40.3333C0 44.2232 1.54523 47.9537 4.29577 50.7042C7.0463 53.4548 10.7768 55 14.6667 55H40.3333C49.1957 55 58.6667 58.8537 58.6667 69.6667C58.6667 70.6391 59.053 71.5718 59.7406 72.2594C60.4282 72.947 61.3609 73.3333 62.3333 73.3333C63.3058 73.3333 64.2384 72.947 64.9261 72.2594C65.6137 71.5718 66 70.6391 66 69.6667ZM30.0153 62.3333H14.6667C12.9595 62.3265 11.259 62.121 9.59933 61.721L18.766 82.1883C19.5359 83.9182 20.7907 85.3879 22.3785 86.4193C23.9664 87.4508 25.8192 87.9998 27.7127 88C29.2191 87.998 30.7011 87.619 32.0236 86.8976C33.3461 86.1762 34.467 85.1353 35.2842 83.8697C36.1014 82.6042 36.589 81.1543 36.7023 79.6521C36.8157 78.1499 36.5513 76.6432 35.9333 75.2693L30.0153 62.3333Z" fill="#141414"/>
</g>
<defs>
<clipPath id="clip0_606_1807">
<rect width="88" height="88" fill="white"/>
</clipPath>
</defs>
</svg>
