<svg width="50" height="50" viewBox="0 0 50 50" fill="none" xmlns="http://www.w3.org/2000/svg">
<g clip-path="url(#clip0_35_2305)">
<path d="M50 22.9167V47.9167C50 48.4692 49.7805 48.9991 49.3898 49.3898C48.9991 49.7805 48.4692 50 47.9167 50C47.3641 50 46.8342 49.7805 46.4435 49.3898C46.0528 48.9991 45.8333 48.4692 45.8333 47.9167V37.5H4.16667V47.9167C4.16667 48.4692 3.94717 48.9991 3.55647 49.3898C3.16577 49.7805 2.63587 50 2.08333 50C1.5308 50 1.00089 49.7805 0.610194 49.3898C0.219493 48.9991 0 48.4692 0 47.9167V26.0417C0 23.0027 1.20721 20.0883 3.35607 17.9394C5.50492 15.7906 8.41939 14.5833 11.4583 14.5833C14.4973 14.5833 17.4117 15.7906 19.5606 17.9394C21.7095 20.0883 22.9167 23.0027 22.9167 26.0417V33.3333H29.1667V22.9167C29.1667 21.2591 29.8251 19.6694 30.9972 18.4973C32.1693 17.3252 33.7591 16.6667 35.4167 16.6667H37.5V20.8333C37.5 21.3859 37.7195 21.9158 38.1102 22.3065C38.5009 22.6972 39.0308 22.9167 39.5833 22.9167C40.1359 22.9167 40.6658 22.6972 41.0565 22.3065C41.4472 21.9158 41.6667 21.3859 41.6667 20.8333V16.6667H43.75C45.4076 16.6667 46.9973 17.3252 48.1694 18.4973C49.3415 19.6694 50 21.2591 50 22.9167ZM18.75 7.29167C18.75 5.84952 18.3224 4.43975 17.5211 3.24064C16.7199 2.04153 15.5811 1.10694 14.2487 0.555048C12.9164 0.00315942 11.4502 -0.14124 10.0358 0.140111C8.62135 0.421461 7.3221 1.11593 6.30235 2.13568C5.28259 3.15544 4.58812 4.45469 4.30677 5.86914C4.02542 7.28358 4.16982 8.74969 4.72171 10.0821C5.2736 11.4144 6.20819 12.5533 7.4073 13.3545C8.60641 14.1557 10.0162 14.5833 11.4583 14.5833C13.3922 14.5833 15.2469 13.8151 16.6143 12.4477C17.9818 11.0802 18.75 9.22554 18.75 7.29167Z" fill="#141414"/>
</g>
<defs>
<clipPath id="clip0_35_2305">
<rect width="50" height="50" fill="white"/>
</clipPath>
</defs>
</svg>
