<svg width="41" height="42" viewBox="0 0 41 42" fill="none" xmlns="http://www.w3.org/2000/svg">
<g clip-path="url(#clip0_35_2447)">
<path d="M20.315 41.3527C18.519 41.3527 16.7966 40.6392 15.5267 39.3693C14.2568 38.0993 13.5433 36.3769 13.5433 34.581V27.8093H6.77167C4.97571 27.8093 3.25331 27.0959 1.98338 25.8259C0.713442 24.556 0 22.8336 0 21.0377C0 19.2417 0.713442 17.5193 1.98338 16.2494C3.25331 14.9794 4.97571 14.266 6.77167 14.266H13.5433V7.49432C13.5433 5.69837 14.2568 3.97597 15.5267 2.70603C16.7966 1.4361 18.519 0.722656 20.315 0.722656C22.111 0.722656 23.8334 1.4361 25.1033 2.70603C26.3732 3.97597 27.0867 5.69837 27.0867 7.49432V14.266H33.8583C35.6543 14.266 37.3767 14.9794 38.6466 16.2494C39.9166 17.5193 40.63 19.2417 40.63 21.0377C40.63 22.8336 39.9166 24.556 38.6466 25.8259C37.3767 27.0959 35.6543 27.8093 33.8583 27.8093H27.0867V34.581C27.0867 36.3769 26.3732 38.0993 25.1033 39.3693C23.8334 40.6392 22.111 41.3527 20.315 41.3527Z" fill="#141414"/>
</g>
<defs>
<clipPath id="clip0_35_2447">
<rect width="40.63" height="40.63" fill="white" transform="translate(0 0.722656)"/>
</clipPath>
</defs>
</svg>
