<svg width="41" height="42" viewBox="0 0 41 42" fill="none" xmlns="http://www.w3.org/2000/svg">
<g clip-path="url(#clip0_85_2195)">
<path d="M20.315 41.0748C18.519 41.0748 16.7966 40.3614 15.5267 39.0914C14.2568 37.8215 13.5433 36.0991 13.5433 34.3032V27.5315H6.77167C4.97571 27.5315 3.25331 26.8181 1.98338 25.5481C0.713442 24.2782 0 22.5558 0 20.7598C0 18.9639 0.713442 17.2415 1.98338 15.9715C3.25331 14.7016 4.97571 13.9882 6.77167 13.9882H13.5433V7.21649C13.5433 5.42053 14.2568 3.69813 15.5267 2.4282C16.7966 1.15827 18.519 0.444824 20.315 0.444824C22.111 0.444824 23.8334 1.15827 25.1033 2.4282C26.3732 3.69813 27.0867 5.42053 27.0867 7.21649V13.9882H33.8583C35.6543 13.9882 37.3767 14.7016 38.6466 15.9715C39.9166 17.2415 40.63 18.9639 40.63 20.7598C40.63 22.5558 39.9166 24.2782 38.6466 25.5481C37.3767 26.8181 35.6543 27.5315 33.8583 27.5315H27.0867V34.3032C27.0867 36.0991 26.3732 37.8215 25.1033 39.0914C23.8334 40.3614 22.111 41.0748 20.315 41.0748Z" fill="#141414"/>
</g>
<defs>
<clipPath id="clip0_85_2195">
<rect width="40.63" height="40.63" fill="white" transform="translate(0 0.444824)"/>
</clipPath>
</defs>
</svg>
