<svg width="20" height="20" viewBox="0 0 20 20" fill="none" xmlns="http://www.w3.org/2000/svg">
<g clip-path="url(#clip0_606_1741)">
<path d="M19.7552 18.5781L14.781 13.6039C16.1365 11.9461 16.803 9.83067 16.6425 7.69522C16.4821 5.55978 15.507 3.5677 13.919 2.13102C12.331 0.694348 10.2515 -0.0770009 8.1107 -0.0234744C5.96991 0.0300521 3.93158 0.904358 2.41734 2.4186C0.9031 3.93284 0.0287933 5.97117 -0.0247333 8.11196C-0.0782598 10.2527 0.693089 12.3322 2.12976 13.9202C3.56644 15.5083 5.55852 16.4833 7.69397 16.6438C9.82941 16.8042 11.9448 16.1378 13.6027 14.7823L18.5768 19.7564C18.734 19.9082 18.9445 19.9922 19.163 19.9903C19.3815 19.9884 19.5905 19.9008 19.745 19.7463C19.8995 19.5918 19.9872 19.3828 19.9891 19.1643C19.991 18.9458 19.907 18.7353 19.7552 18.5781ZM8.33266 15.0006C7.01412 15.0006 5.72519 14.6096 4.62886 13.8771C3.53253 13.1445 2.67805 12.1033 2.17347 10.8851C1.66888 9.66697 1.53686 8.32653 1.79409 7.03332C2.05133 5.74011 2.68627 4.55223 3.61862 3.61988C4.55097 2.68753 5.73885 2.05259 7.03206 1.79535C8.32527 1.53812 9.66571 1.67014 10.8839 2.17473C12.1021 2.67931 13.1433 3.53379 13.8758 4.63012C14.6083 5.72645 14.9993 7.01538 14.9993 8.33392C14.9973 10.1014 14.2943 11.796 13.0445 13.0458C11.7947 14.2956 10.1002 14.9986 8.33266 15.0006Z" fill="#F8F9FA"/>
</g>
<defs>
<clipPath id="clip0_606_1741">
<rect width="20" height="20" fill="white"/>
</clipPath>
</defs>
</svg>
