<svg width="234" height="234" viewBox="0 0 234 234" fill="none" xmlns="http://www.w3.org/2000/svg">
<circle cx="117" cy="117" r="117" fill="black"/>
<path d="M41.2462 142.782L71.5171 173.053C75.6049 177.139 81.1484 179.435 86.9286 179.435C92.7088 179.435 98.2523 177.139 102.34 173.053L195.827 79.5662C197.15 78.1958 197.883 76.3604 197.866 74.4552C197.849 72.5501 197.085 70.7276 195.738 69.3804C194.391 68.0332 192.568 67.269 190.663 67.2525C188.758 67.2359 186.923 67.9683 185.552 69.2919L92.0658 162.778C90.7032 164.141 88.8553 164.906 86.9286 164.906C85.0019 164.906 83.154 164.141 81.7914 162.778L51.5206 132.507C50.1502 131.184 48.3147 130.452 46.4096 130.468C44.5044 130.485 42.682 131.249 41.3348 132.596C39.9875 133.943 39.2234 135.766 39.2068 137.671C39.1903 139.576 39.9227 141.411 41.2462 142.782V142.782Z" fill="white"/>
</svg>
