<svg width="25" height="25" viewBox="0 0 25 25" fill="none" xmlns="http://www.w3.org/2000/svg">
<g clip-path="url(#clip0_606_1735)">
<path d="M24.4247 16.8694L16.1034 8.54814C15.6304 8.07389 15.0684 7.69762 14.4497 7.44089C13.831 7.18415 13.1677 7.052 12.4979 7.052C11.828 7.052 11.1648 7.18415 10.5461 7.44089C9.92735 7.69762 9.36538 8.07389 8.89232 8.54814L0.571022 16.8694C0.379231 17.0612 0.271484 17.3214 0.271484 17.5926C0.271484 17.8638 0.379231 18.1239 0.571022 18.3157C0.762813 18.5075 1.02294 18.6153 1.29417 18.6153C1.5654 18.6153 1.82553 18.5075 2.01732 18.3157L10.3386 9.99444C10.9115 9.42223 11.6881 9.10083 12.4979 9.10083C13.3076 9.10083 14.0842 9.42223 14.6571 9.99444L22.9784 18.3157C23.0731 18.4112 23.1858 18.487 23.3099 18.5387C23.434 18.5904 23.5671 18.617 23.7016 18.617C23.836 18.617 23.9692 18.5904 24.0933 18.5387C24.2174 18.487 24.33 18.4112 24.4247 18.3157C24.5202 18.2211 24.596 18.1084 24.6477 17.9843C24.6994 17.8602 24.726 17.727 24.726 17.5926C24.726 17.4581 24.6994 17.325 24.6477 17.2009C24.596 17.0768 24.5202 16.9641 24.4247 16.8694Z" fill="#F8F9FA"/>
</g>
<defs>
<clipPath id="clip0_606_1735">
<rect width="24.4444" height="24.4444" fill="white" transform="translate(0.275391 0.277832)"/>
</clipPath>
</defs>
</svg>
