<svg width="41" height="41" viewBox="0 0 41 41" fill="none" xmlns="http://www.w3.org/2000/svg">
<g clip-path="url(#clip0_606_1786)">
<path d="M37.2482 16.9492C37.1724 20.1702 36.3719 23.3328 34.9062 26.2013C33.4405 29.0698 31.3473 31.5704 28.7826 33.5169V38.983C28.7826 39.4326 28.6042 39.8637 28.2867 40.1815C27.9691 40.4994 27.5385 40.678 27.0894 40.678C26.6404 40.678 26.2097 40.4994 25.8922 40.1815C25.5747 39.8637 25.3963 39.4326 25.3963 38.983V3.38983C25.3811 2.75299 25.555 2.12594 25.8958 1.58802C26.2367 1.05009 26.7293 0.625442 27.3112 0.367797C27.9798 0.0955342 28.713 0.0241189 29.4214 0.162278C30.1298 0.300438 30.7827 0.642187 31.3002 1.14576C35.2272 5.45924 37.3555 11.1141 37.2482 16.9492ZM18.6238 0C18.1748 0 17.7441 0.178571 17.4266 0.496429C17.1091 0.814287 16.9307 1.2454 16.9307 1.69492V11.8644C16.9264 12.9123 16.5987 13.9333 15.9926 14.7876C15.3864 15.642 14.5314 16.288 13.5445 16.6373V1.69492C13.5445 1.2454 13.3661 0.814287 13.0486 0.496429C12.731 0.178571 12.3004 0 11.8513 0C11.4023 0 10.9717 0.178571 10.6541 0.496429C10.3366 0.814287 10.1582 1.2454 10.1582 1.69492V16.6373C9.17129 16.288 8.31627 15.642 7.71012 14.7876C7.10398 13.9333 6.77632 12.9123 6.77199 11.8644V1.69492C6.77199 1.2454 6.5936 0.814287 6.27608 0.496429C5.95856 0.178571 5.52791 0 5.07886 0C4.62982 0 4.19917 0.178571 3.88165 0.496429C3.56412 0.814287 3.38574 1.2454 3.38574 1.69492V11.8644C3.3882 13.8173 4.06314 15.7096 5.2968 17.2225C6.53045 18.7353 8.24739 19.7761 10.1582 20.1695V38.983C10.1582 39.4326 10.3366 39.8637 10.6541 40.1815C10.9717 40.4994 11.4023 40.678 11.8513 40.678C12.3004 40.678 12.731 40.4994 13.0486 40.1815C13.3661 39.8637 13.5445 39.4326 13.5445 38.983V20.1695C15.4553 19.7761 17.1722 18.7353 18.4059 17.2225C19.6396 15.7096 20.3145 13.8173 20.317 11.8644V1.69492C20.317 1.2454 20.1386 0.814287 19.8211 0.496429C19.5035 0.178571 19.0729 0 18.6238 0V0Z" fill="#141414"/>
</g>
<defs>
<clipPath id="clip0_606_1786">
<rect width="40.6349" height="40.678" fill="white"/>
</clipPath>
</defs>
</svg>
